<svg width="1409" height="291" viewBox="0 0 1409 291" fill="none" xmlns="http://www.w3.org/2000/svg">
<path d="M138.119 97.5455H172.565L205.733 160.188H207.153L240.321 97.5455H274.767L221.713 191.58V243H191.173V191.58L138.119 97.5455ZM291.564 243V97.5455H322.317V217.645H384.675V243H291.564ZM405.04 243V97.5455H503.052V122.901H435.793V157.56H498.009V182.915H435.793V217.645H503.336V243H405.04ZM527.501 243V97.5455H584.888C595.873 97.5455 605.248 99.5104 613.013 103.44C620.825 107.323 626.768 112.839 630.839 119.989C634.959 127.091 637.018 135.448 637.018 145.06C637.018 154.719 634.935 163.028 630.768 169.989C626.602 176.902 620.565 182.205 612.658 185.898C604.798 189.591 595.281 191.438 584.107 191.438H545.683V166.722H579.135C585.006 166.722 589.883 165.917 593.766 164.307C597.648 162.697 600.536 160.282 602.43 157.062C604.372 153.843 605.342 149.842 605.342 145.06C605.342 140.23 604.372 136.158 602.43 132.844C600.536 129.529 597.625 127.02 593.695 125.315C589.812 123.563 584.911 122.688 578.993 122.688H558.254V243H527.501ZM606.053 176.807L642.203 243H608.254L572.885 176.807H606.053Z" fill="white"/>
<path d="M859.713 243H826.759L876.972 97.5455H916.602L966.744 243H933.79L897.355 130.784H896.219L859.713 243ZM857.653 185.827H935.494V209.832H857.653V185.827ZM984.251 97.5455H1022.18L1062.23 195.273H1063.94L1104 97.5455H1141.92V243H1112.09V148.327H1110.88L1073.24 242.29H1052.93L1015.29 147.972H1014.08V243H984.251V97.5455ZM1167.26 243V97.5455H1265.27V122.901H1198.01V157.56H1260.23V182.915H1198.01V217.645H1265.55V243H1167.26ZM1368.63 139.378C1368.06 133.649 1365.62 129.198 1361.31 126.026C1357 122.853 1351.15 121.267 1343.77 121.267C1338.75 121.267 1334.51 121.977 1331.06 123.398C1327.6 124.771 1324.95 126.688 1323.1 129.151C1321.3 131.613 1320.4 134.406 1320.4 137.531C1320.31 140.135 1320.85 142.408 1322.04 144.349C1323.27 146.291 1324.95 147.972 1327.08 149.392C1329.21 150.765 1331.67 151.973 1334.46 153.014C1337.26 154.009 1340.24 154.861 1343.41 155.571L1356.48 158.696C1362.83 160.116 1368.65 162.01 1373.95 164.378C1379.26 166.745 1383.85 169.657 1387.73 173.114C1391.61 176.57 1394.62 180.642 1396.75 185.33C1398.93 190.017 1400.04 195.391 1400.09 201.452C1400.04 210.353 1397.77 218.071 1393.27 224.605C1388.82 231.092 1382.38 236.134 1373.95 239.733C1365.57 243.284 1355.46 245.06 1343.63 245.06C1331.88 245.06 1321.66 243.26 1312.94 239.662C1304.28 236.063 1297.51 230.737 1292.63 223.682C1287.8 216.58 1285.27 207.796 1285.03 197.332H1314.79C1315.12 202.209 1316.52 206.281 1318.98 209.548C1321.49 212.768 1324.83 215.206 1329 216.864C1333.21 218.473 1337.97 219.278 1343.27 219.278C1348.48 219.278 1353 218.521 1356.84 217.006C1360.72 215.491 1363.73 213.384 1365.86 210.685C1367.99 207.986 1369.05 204.884 1369.05 201.381C1369.05 198.114 1368.08 195.367 1366.14 193.142C1364.25 190.917 1361.45 189.023 1357.76 187.46C1354.11 185.898 1349.64 184.477 1344.34 183.199L1328.5 179.222C1316.24 176.239 1306.55 171.575 1299.45 165.23C1292.35 158.885 1288.82 150.339 1288.87 139.591C1288.82 130.784 1291.16 123.09 1295.9 116.509C1300.68 109.927 1307.24 104.79 1315.57 101.097C1323.91 97.4034 1333.38 95.5568 1343.98 95.5568C1354.78 95.5568 1364.2 97.4034 1372.25 101.097C1380.35 104.79 1386.64 109.927 1391.14 116.509C1395.64 123.09 1397.96 130.713 1398.1 139.378H1368.63Z" fill="white"/>
<mask id="path-3-outside-1_2_2" maskUnits="userSpaceOnUse" x="6" y="47" width="122" height="148" fill="black">
<rect fill="white" x="6" y="47" width="122" height="148"/>
<path d="M7.10227 73.9006V48.5455H126.562V73.9006H82.0312V194H51.6335V73.9006H7.10227Z"/>
</mask>
<path d="M7.10227 73.9006H6.10227V74.9006H7.10227V73.9006ZM7.10227 48.5454V47.5454H6.10227V48.5454H7.10227ZM126.562 48.5454H127.562V47.5454H126.562V48.5454ZM126.562 73.9006V74.9006H127.562V73.9006H126.562ZM82.0312 73.9006V72.9006H81.0312V73.9006H82.0312ZM82.0312 194V195H83.0312V194H82.0312ZM51.6335 194H50.6335V195H51.6335V194ZM51.6335 73.9006H52.6335V72.9006H51.6335V73.9006ZM8.10227 73.9006V48.5454H6.10227V73.9006H8.10227ZM7.10227 49.5454H126.562V47.5454H7.10227V49.5454ZM125.562 48.5454V73.9006H127.562V48.5454H125.562ZM126.562 72.9006H82.0312V74.9006H126.562V72.9006ZM81.0312 73.9006V194H83.0312V73.9006H81.0312ZM82.0312 193H51.6335V195H82.0312V193ZM52.6335 194V73.9006H50.6335V194H52.6335ZM51.6335 72.9006H7.10227V74.9006H51.6335V72.9006Z" fill="white" mask="url(#path-3-outside-1_2_2)"/>
<path fill-rule="evenodd" clip-rule="evenodd" d="M48.818 73.9006L82.0966 48.5455H126.562V73.9006H82.0312V194H51.6335V73.9006H48.818Z" fill="white"/>
<mask id="path-6-outside-2_2_2" maskUnits="userSpaceOnUse" x="695" y="47" width="100" height="150" fill="black">
<rect fill="white" x="695" y="47" width="100" height="150"/>
<path d="M762.881 48.5455H793.278V149.966C793.278 159.341 791.171 167.485 786.957 174.398C782.791 181.311 776.991 186.637 769.557 190.378C762.123 194.118 753.482 195.989 743.634 195.989C734.874 195.989 726.92 194.45 719.77 191.372C712.668 188.247 707.033 183.512 702.866 177.168C698.7 170.776 696.64 162.75 696.688 153.091H727.298C727.393 156.926 728.174 160.217 729.642 162.963C731.157 165.662 733.217 167.745 735.821 169.213C738.473 170.634 741.598 171.344 745.196 171.344C748.984 171.344 752.18 170.539 754.784 168.929C757.436 167.272 759.448 164.857 760.821 161.685C762.194 158.512 762.881 154.606 762.881 149.966V48.5455Z"/>
</mask>
<path d="M762.881 48.5454V47.5454H761.881V48.5454H762.881ZM793.278 48.5454H794.278V47.5454H793.278V48.5454ZM786.957 174.398L786.104 173.877L786.101 173.882L786.957 174.398ZM769.557 190.378L769.107 189.485L769.557 190.378ZM719.77 191.372L719.367 192.288L719.375 192.291L719.77 191.372ZM702.866 177.168L702.029 177.714L702.031 177.717L702.866 177.168ZM696.688 153.091V152.091H695.692L695.688 153.086L696.688 153.091ZM727.298 153.091L728.298 153.066L728.274 152.091H727.298V153.091ZM729.642 162.963L728.76 163.434L728.765 163.444L728.77 163.453L729.642 162.963ZM735.821 169.213L735.33 170.084L735.339 170.089L735.349 170.095L735.821 169.213ZM754.784 168.929L755.31 169.78L755.314 169.777L754.784 168.929ZM760.821 161.685L761.739 162.082L760.821 161.685ZM762.881 49.5454H793.278V47.5454H762.881V49.5454ZM792.278 48.5454V149.966H794.278V48.5454H792.278ZM792.278 149.966C792.278 159.187 790.208 167.145 786.104 173.877L787.811 174.918C792.135 167.825 794.278 159.495 794.278 149.966H792.278ZM786.101 173.882C782.035 180.628 776.378 185.826 769.107 189.485L770.006 191.271C777.603 187.449 783.547 181.994 787.814 174.914L786.101 173.882ZM769.107 189.485C761.836 193.143 753.354 194.989 743.634 194.989V196.989C753.61 196.989 762.41 195.094 770.006 191.271L769.107 189.485ZM743.634 194.989C734.993 194.989 727.175 193.471 720.165 190.454L719.375 192.291C726.664 195.428 734.755 196.989 743.634 196.989V194.989ZM720.173 190.457C713.243 187.408 707.761 182.798 703.702 176.619L702.031 177.717C706.306 184.226 712.092 189.087 719.367 192.287L720.173 190.457ZM703.704 176.622C699.67 170.432 697.641 162.611 697.687 153.096L695.688 153.086C695.639 162.889 697.73 171.119 702.029 177.714L703.704 176.622ZM696.688 154.091H727.298V152.091H696.688V154.091ZM726.299 153.116C726.396 157.071 727.204 160.522 728.76 163.434L730.524 162.492C729.145 159.911 728.39 156.781 728.298 153.066L726.299 153.116ZM728.77 163.453C730.372 166.305 732.56 168.523 735.33 170.084L736.312 168.342C733.873 166.967 731.943 165.019 730.514 162.474L728.77 163.453ZM735.349 170.095C738.172 171.607 741.465 172.344 745.196 172.344V170.344C741.73 170.344 738.774 169.66 736.293 168.332L735.349 170.095ZM745.196 172.344C749.126 172.344 752.514 171.508 755.31 169.78L754.258 168.078C751.846 169.57 748.842 170.344 745.196 170.344V172.344ZM755.314 169.777C758.156 168.001 760.294 165.42 761.739 162.082L759.903 161.287C758.602 164.294 756.716 166.543 754.254 168.081L755.314 169.777ZM761.739 162.082C763.181 158.749 763.881 154.698 763.881 149.966H761.881C761.881 154.514 761.207 158.276 759.903 161.287L761.739 162.082ZM763.881 149.966V48.5454H761.881V149.966H763.881Z" fill="white" mask="url(#path-6-outside-2_2_2)"/>
<path fill-rule="evenodd" clip-rule="evenodd" d="M762.881 90.9957L793.278 67.8355V149.966C793.278 159.341 791.171 167.485 786.957 174.398C782.791 181.311 776.991 186.637 769.557 190.378C762.123 194.118 753.482 195.989 743.634 195.989C734.874 195.989 726.92 194.45 719.77 191.372C712.668 188.247 707.033 183.512 702.866 177.168C698.7 170.776 696.64 162.75 696.688 153.091H727.298C727.393 156.926 728.174 160.217 729.642 162.963C731.157 165.662 733.217 167.745 735.821 169.213C738.473 170.634 741.598 171.344 745.196 171.344C748.984 171.344 752.18 170.539 754.784 168.929C757.436 167.272 759.448 164.857 760.821 161.685C762.194 158.512 762.881 154.606 762.881 149.966V90.9957Z" fill="white"/>
<path d="M6 108L127 14" stroke="white"/>
<path d="M733 116L822 47" stroke="white"/>
</svg>
